Patient4_TMGait_0pt2_01_right_10_GRF.mot
version=1
nRows=38
nColumns=19
inDegrees=no
endheader
time	F1x	F1y	F1z	M1x	M1y	M1z	F2x	F2y	F2z	M2x	M2y	M2z	EC1x	EC1y	EC1z	EC2x	EC2y	EC2z
21.1	-8.0038	658.6238	35.9793	-230.6636	-39.441	704.4413	-2.2873	121.4692	-6.1606	44.453	6.5798	110.4711	-0.0592	0.0182	-0.0073	-0.0462	0.0165	0.9585
21.1241	-6.527	680.2273	38.5958	-238.2724	-41.4717	724.7576	-1.2912	110.4409	-6.525	40.3527	6.673	100.7805	-0.0592	0.0182	-0.0073	-0.0462	0.0165	0.9585
21.1481	-4.9125	706.2926	41.8573	-247.3928	-43.9737	749.0661	-0.90697	96.496	-6.5273	35.2018	6.6123	88.3553	-0.0592	0.0182	-0.0073	-0.0462	0.0165	0.9585
21.1722	-3.2548	735.0312	45.5512	-257.3967	-46.7612	775.5832	-1.1086	80.4672	-6.114	29.3119	6.3361	73.9388	-0.0592	0.0182	-0.0073	-0.0462	0.0165	0.9585
21.1963	-1.6213	763.9698	49.3556	-267.4287	-49.5516	801.8729	-1.6572	63.5703	-5.3294	23.1313	5.8069	58.6464	-0.0592	0.0182	-0.0073	-0.0462	0.0165	0.9585
21.2204	-0.057258	790.207	52.9182	-276.4854	-52.0367	825.0869	-2.2013	47.137	-4.2958	17.1438	5.0235	43.7056	-0.0592	0.0182	-0.0073	-0.0462	0.0165	0.9585
21.2444	1.4179	810.8472	55.9246	-283.5634	-53.9421	842.3867	-2.4205	32.3801	-3.1769	11.7839	4.0343	30.2349	-0.0592	0.0182	-0.0073	-0.0462	0.0165	0.9585
21.2685	2.8042	823.6093	58.1274	-287.8783	-55.0542	851.5482	-2.225	20.1968	-2.1334	7.3696	2.963	19.0611	-0.0592	0.0182	-0.0073	-0.0462	0.0165	0.9585
21.2926	4.1156	827.4258	59.3665	-289.078	-55.2404	851.5556	-1.7881	10.9345	-1.2692	4.0213	1.9696	10.5075	-0.0592	0.0182	-0.0073	-0.0462	0.0165	0.9585
21.3166	5.3945	822.8264	59.5881	-287.3792	-54.4592	842.9612	-1.2677	4.3351	-0.614	1.6409	1.138	4.337	-0.0592	0.0182	-0.0073	-0.0462	0.0165	0.9585
21.3407	6.7209	811.8596	58.8391	-283.5388	-52.7487	827.7821	-0.75606	-0.18857	-0.14965	0.011758	0.48311	0.0020811	-0.0592	0.0182	-0.0073	-0.0462	0.0165	0.9585
21.3648	8.2052	797.5386	57.2448	-278.655	-50.2036	808.953	-0.3024	-3.3074	0.16362	-1.1127	-0.016086	-3.1161	-0.0592	0.0182	-0.0073	-0.0462	0.0165	0.9585
21.3889	9.9646	783.0229	55.0001	-273.8683	-46.9748	789.5301	0.072074	-5.608	0.36855	-1.9477	-0.39052	-5.5511	-0.0592	0.0182	-0.0073	-0.0462	0.0165	0.9585
21.4129	12.1114	770.8335	52.3568	-270.0747	-43.2638	771.9399	0.36191	-7.4756	0.49813	-2.6343	-0.66719	-7.6368	-0.0592	0.0182	-0.0073	-0.0462	0.0165	0.9585
21.437	14.7431	762.3149	49.5985	-267.7253	-39.3049	757.4906	0.56119	-9.0049	0.56871	-3.2082	-0.85479	-9.4069	-0.0592	0.0182	-0.0073	-0.0462	0.0165	0.9585
21.4611	17.9005	757.4292	47.0174	-266.7528	-35.3565	746.2249	0.65007	-9.932	0.5756	-3.5733	-0.92938	-10.5169	-0.0592	0.0182	-0.0073	-0.0462	0.0165	0.9585
21.4851	21.5274	754.9043	44.8758	-266.633	-31.6813	737.0922	0.58677	-9.583	0.48612	-3.4812	-0.83137	-10.1851	-0.0592	0.0182	-0.0073	-0.0462	0.0165	0.9585
21.5092	25.4594	752.7282	43.3618	-266.569	-28.5115	728.419	0.30432	-6.8426	0.24154	-2.5186	-0.46536	-7.1636	-0.0592	0.0182	-0.0073	-0.0462	0.0165	0.9585
21.5333	29.41	748.7261	42.5659	-265.7112	-26.0335	718.432	-0.2845	-0.17189	-0.2392	-0.11357	0.29816	0.24641	-0.0592	0.0182	-0.0073	-0.0462	0.0165	0.9585
21.5574	33.0036	740.9672	42.4668	-263.3161	-24.3658	705.5861	-1.2738	12.2778	-1.0525	4.4243	1.6089	14.0725	-0.0592	0.0182	-0.0073	-0.0462	0.0165	0.9585
21.5814	35.8656	727.9456	42.8994	-258.8253	-23.4989	688.673	-2.7454	32.408	-2.2936	11.812	3.6102	36.3792	-0.0592	0.0182	-0.0073	-0.0462	0.0165	0.9585
21.6055	37.6683	708.5177	43.5512	-251.8515	-23.2698	666.7486	-4.7324	61.7042	-4.0207	22.6208	6.3873	68.7514	-0.0592	0.0182	-0.0073	-0.0462	0.0165	0.9585
21.6296	38.1395	681.7723	44.0202	-242.119	-23.4119	639.0166	-7.1883	100.5129	-6.209	37.0074	9.9039	111.499	-0.0592	0.0182	-0.0073	-0.0462	0.0165	0.9585
21.6536	37.0976	647.2119	43.9093	-229.5113	-23.6326	605.0156	-10.0891	147.3684	-8.7698	54.4531	14.0516	162.9305	-0.0592	0.0182	-0.0073	-0.0462	0.0165	0.9585
21.6777	34.5154	605.3026	42.9292	-214.2555	-23.6879	565.1328	-13.2269	198.809	-11.7289	73.6645	18.7652	219.1822	-0.0592	0.0182	-0.0073	-0.0462	0.0165	0.9585
21.7018	30.6086	557.9427	40.9837	-197.077	-23.4236	521.0172	-16.1066	250.1484	-15.1224	92.8648	23.8641	275.0641	-0.0592	0.0182	-0.0073	-0.0462	0.0165	0.9585
21.7259	25.9016	508.3799	38.2196	-179.1583	-22.787	475.4654	-18.2626	297.7655	-18.6099	110.6923	28.7783	326.5805	-0.0592	0.0182	-0.0073	-0.0462	0.0165	0.9585
21.7499	21.1349	460.356	34.9775	-161.8352	-21.8083	431.6452	-19.5098	340.1088	-21.6412	126.5805	32.8352	372.0354	-0.0592	0.0182	-0.0073	-0.0462	0.0165	0.9585
21.774	16.9946	416.9463	31.6467	-146.1957	-20.5737	392.1076	-19.9011	376.8382	-23.9101	140.4057	35.7141	411.0852	-0.0592	0.0182	-0.0073	-0.0462	0.0165	0.9585
21.7981	13.8642	379.7777	28.5537	-132.8106	-19.2167	358.1497	-19.5729	408.0641	-25.4126	152.1916	37.4446	443.879	-0.0592	0.0182	-0.0073	-0.0462	0.0165	0.9585
21.8221	11.7844	348.8857	25.9032	-121.6869	-17.8834	329.7053	-18.6918	434.13	-26.2732	162.0406	38.2045	470.7997	-0.0592	0.0182	-0.0073	-0.0462	0.0165	0.9585
21.8462	10.577	323.1135	23.7569	-112.4103	-16.6789	305.6864	-17.4123	455.7342	-26.6541	170.1904	38.2133	492.5792	-0.0592	0.0182	-0.0073	-0.0462	0.0165	0.9585
21.8703	9.9895	300.8296	22.0612	-104.4027	-15.636	284.6223	-15.8524	474.064	-26.7443	177.0704	37.7173	510.4557	-0.0592	0.0182	-0.0073	-0.0462	0.0165	0.9585
21.8944	9.7695	280.5024	20.703	-97.1278	-14.7392	265.1755	-14.127	490.7056	-26.7365	183.2654	36.9815	526.116	-0.0592	0.0182	-0.0073	-0.0462	0.0165	0.9585
21.9184	9.6936	260.941	19.548	-90.1757	-13.9471	246.3402	-12.3509	507.244	-26.8065	189.3649	36.2606	541.2913	-0.0592	0.0182	-0.0073	-0.0462	0.0165	0.9585
21.9425	9.5728	241.2979	18.474	-83.2586	-13.2186	227.4264	-10.6098	524.8282	-27.0771	195.7973	35.7428	557.2927	-0.0592	0.0182	-0.0073	-0.0462	0.0165	0.9585
21.9666	9.252	221.0099	17.396	-76.1818	-12.5331	207.9859	-8.962	543.9318	-27.6035	202.7361	35.5244	574.7447	-0.0592	0.0182	-0.0073	-0.0462	0.0165	0.9585
21.9906	8.6243	199.7262	16.2656	-68.8158	-11.8821	187.737	-7.4478	564.4376	-28.3906	210.1309	35.629	593.6521	-0.0592	0.0182	-0.0073	-0.0462	0.0165	0.9585
